<svg width="63" height="62" viewBox="0 0 63 62" fill="none" xmlns="http://www.w3.org/2000/svg">
<path d="M52.8752 15.0005H44.7001L42.7524 9.54242C42.6179 9.16894 42.3713 8.84611 42.0464 8.61802C41.7215 8.38993 41.3341 8.26772 40.9371 8.26807H22.495C21.6835 8.26807 20.9562 8.77901 20.6857 9.54242L18.732 15.0005H10.5569C7.90002 15.0005 5.74805 17.1525 5.74805 19.8094V47.2201C5.74805 49.877 7.90002 52.029 10.5569 52.029H52.8752C55.5321 52.029 57.6841 49.877 57.6841 47.2201V19.8094C57.6841 17.1525 55.5321 15.0005 52.8752 15.0005ZM53.3561 47.2201C53.3561 47.4846 53.1397 47.701 52.8752 47.701H10.5569C10.2924 47.701 10.076 47.4846 10.076 47.2201V19.8094C10.076 19.5449 10.2924 19.3285 10.5569 19.3285H21.7797L22.8076 16.4552L24.1841 12.5961H39.242L40.6185 16.4552L41.6464 19.3285H52.8752C53.1397 19.3285 53.3561 19.5449 53.3561 19.8094V47.2201ZM31.716 23.1756C26.4022 23.1756 22.0983 27.4796 22.0983 32.7934C22.0983 38.1072 26.4022 42.4112 31.716 42.4112C37.0299 42.4112 41.3338 38.1072 41.3338 32.7934C41.3338 27.4796 37.0299 23.1756 31.716 23.1756ZM31.716 38.5641C28.5302 38.5641 25.9454 35.9793 25.9454 32.7934C25.9454 29.6075 28.5302 27.0227 31.716 27.0227C34.9019 27.0227 37.4867 29.6075 37.4867 32.7934C37.4867 35.9793 34.9019 38.5641 31.716 38.5641Z" fill="#F28705"/>
</svg>
