<svg width="167" height="42" viewBox="0 0 167 42" fill="none" xmlns="http://www.w3.org/2000/svg">
<path d="M16.2266 3.7265C15.8199 4.00304 15.5334 4.51924 15.4132 5.2198C15.2654 6.05863 15.1267 10.179 15.2192 10.9902C15.3208 11.8659 15.4779 12.253 15.8569 12.5757C16.2174 12.8799 16.5039 12.9536 16.9568 12.8799C17.4189 12.8061 17.7239 12.5665 17.9642 12.0779C18.2508 11.5248 18.3432 10.7505 18.4541 8.02204C18.565 5.4779 18.5188 4.8603 18.1491 4.20583C17.7609 3.53293 16.8459 3.30248 16.2266 3.7265Z" fill="#FF4794"/>
<path d="M67.0706 5.23823C65.7674 5.36728 64.7507 5.66225 64.2331 6.05862C63.4937 6.62091 63.3458 7.56114 63.3458 11.5801C63.3458 15.8572 63.7617 26.172 64.076 29.5089C64.2331 31.1866 64.3995 32.1452 64.6768 32.8827C65.0095 33.7584 65.3607 34.0349 66.5253 34.3575C67.3387 34.588 69.6124 34.588 70.9063 34.3575C73.3094 33.9243 76.4612 32.9564 78.2543 32.0715C79.3264 31.5553 79.4743 31.4539 80.2877 30.6243C81.5909 29.3061 82.3488 27.8774 82.8294 25.8955C83.7629 21.9595 83.1252 17.3413 81.0733 13.2117C79.7793 10.6123 78.2173 8.59354 76.2116 6.9251C74.9824 5.90192 73.3649 5.45946 70.2039 5.26588C68.7343 5.1737 67.7453 5.16449 67.0706 5.23823ZM70.3056 9.46002C71.7751 9.57064 73.0599 9.86561 73.9194 10.2988C75.389 11.0271 77.7367 15.2304 78.6055 18.6779C79.1416 20.8257 79.234 23.4251 78.8181 25.0382C78.3929 26.6698 77.4594 27.9603 76.2671 28.5687C75.1302 29.1402 71.7382 30.0251 69.3813 30.3754C68.3461 30.5321 68.0319 30.5045 67.9579 30.2556C67.579 29.0296 66.5992 16.3181 66.5715 12.3176C66.5623 10.2251 66.627 9.98544 67.274 9.66282C67.5975 9.50611 68.9284 9.32175 69.3351 9.37706C69.4368 9.3955 69.8712 9.43237 70.3056 9.46002Z" fill="#FF4794"/>
<path d="M50.2952 5.62538C50.0826 5.71756 49.8053 5.92035 49.6759 6.08628C49.1491 6.70387 47.3375 10.5477 45.0916 15.7743C44.2505 17.7561 39.6846 29.1402 39.2409 30.3754C38.3074 32.9933 38.2335 33.6754 38.8435 34.2838C39.13 34.5695 39.204 34.5972 39.5367 34.5511C40.6273 34.4036 41.5701 33.0394 43.7514 28.412C45.7385 24.2086 46.7552 21.8673 47.3837 20.0053C48.5021 16.7053 50.1103 13.0642 50.7943 12.2715C51.0716 11.9581 51.0808 11.9581 51.2195 12.124C51.2934 12.2254 51.3581 12.4927 51.3581 12.7324C51.3581 12.9628 51.4783 13.6449 51.6261 14.2533C52.0421 15.9402 53.9276 21.2589 55.0182 23.8307C55.7022 25.4162 56.229 26.845 56.7281 28.4489C57.5045 30.9469 58.2254 32.8181 58.6228 33.3897C59.3715 34.4774 60.915 34.2561 61.2478 33.0025C61.6082 31.6751 60.7024 28.4581 57.9112 21.1944C56.8852 18.5212 55.3879 14.1611 54.7871 12.0871C53.7057 8.39075 53.2806 7.386 52.4487 6.49186C51.469 5.45024 51.0438 5.28432 50.2952 5.62538Z" fill="#FF4794"/>
<path d="M143.96 5.6346C143.008 6.13237 142.167 7.57036 139.552 13.1472C137.833 16.8343 137.241 18.217 136.613 20.0698C135.356 23.8215 133.609 27.6469 133.026 27.9603C132.786 28.0894 132.731 27.9603 132.666 27.1768C132.629 26.8081 132.481 26.0522 132.333 25.4991C132.028 24.3653 130.041 18.5857 129.681 17.8022C129.422 17.2491 129.089 16.8435 128.701 16.6408C128.322 16.4472 127.398 16.4748 126.963 16.6961C126.288 17.0371 126.067 17.4519 125.189 20.0606C124.079 23.3514 122.48 26.9648 121.797 27.7575C121.519 28.0709 121.51 28.0709 121.371 27.905C121.297 27.8036 121.233 27.5363 121.233 27.2966C121.233 27.0662 121.113 26.3841 120.965 25.7757C120.558 24.1165 118.599 18.6042 117.526 16.0969C116.898 14.6128 116.362 13.1564 115.9 11.6723C115.096 9.10974 114.421 7.31226 114.014 6.71309C113.247 5.55164 111.694 5.72678 111.343 7.0265C111.093 7.92985 111.482 9.84717 112.554 13.0089C113.099 14.6405 113.395 15.4516 115.16 20.1067C116.075 22.5494 117.536 26.9095 118.127 29.0204C118.83 31.5184 119.366 32.7075 120.151 33.5464C121.122 34.5788 121.547 34.7447 122.296 34.4036C122.841 34.1547 123.072 33.8321 123.987 32.0162C124.763 30.4952 127.703 23.9045 127.703 23.7017C127.703 23.0933 128.608 25.6835 129.551 28.9835C130.355 31.795 130.827 32.7813 131.834 33.7584C132.176 34.0994 132.555 34.4221 132.666 34.4774C133.147 34.717 133.988 34.4497 134.385 33.9243C135.3 32.7075 138.304 25.9785 141.446 18.0787C142.177 16.226 143.212 13.6542 143.739 12.3637C145.633 7.68097 145.92 6.27985 145.097 5.6346C144.811 5.40415 144.395 5.40415 143.96 5.6346Z" fill="#FF4794"/>
<path d="M151.965 5.62536C151.752 5.71754 151.465 5.92955 151.327 6.10469C150.523 7.05413 147.574 13.691 143.859 22.9181C139.866 32.8181 139.681 33.4542 140.504 34.2745C141.326 35.0949 142.426 34.2285 143.859 31.6198C144.367 30.6888 146.641 25.8771 147.667 23.5449C148.12 22.5217 148.739 20.9363 149.053 20.0237C150.144 16.7698 151.78 13.0642 152.464 12.2715C152.732 11.9765 152.759 11.958 152.87 12.1055C152.944 12.1977 153.027 12.5664 153.055 12.9351C153.092 13.3039 153.24 14.0597 153.388 14.622C153.878 16.4103 155.763 21.6553 156.752 23.9782C157.409 25.4991 157.926 26.9002 158.342 28.2645C159.423 31.7673 159.996 33.1407 160.597 33.6846C161.429 34.4405 162.612 34.0994 162.917 33.0301C163.287 31.6843 162.455 28.7254 159.599 21.222C158.471 18.2815 157.076 14.2072 156.457 12.0871C155.366 8.3815 154.95 7.37675 154.118 6.49184C153.138 5.45022 152.713 5.28429 151.965 5.62536Z" fill="#FF4794"/>
<path d="M97.2018 5.79129C95.344 5.96643 94.1979 6.25219 92.9871 6.83291C91.3511 7.61643 90.3344 8.51057 88.9943 10.3081C87.4322 12.4282 86.4802 14.4745 86.1568 16.4195C85.9349 17.8022 85.824 20.5491 85.9257 22.2268C86.0551 24.4299 86.2769 25.2134 87.4138 27.3888C88.9758 30.3938 90.7873 32.5232 92.5065 33.3896C92.8022 33.5371 93.5786 33.8137 94.2256 33.9888C98.4772 35.1503 102.405 34.5511 105.982 32.2005C107.535 31.1773 109.125 29.3983 109.957 27.7575C110.336 27.0109 110.853 25.4899 111.038 24.5497C111.241 23.5634 111.269 19.9131 111.084 18.3092C110.613 14.2072 109.374 11.3865 106.953 8.87007C104.929 6.76839 103.533 6.09548 100.668 5.81894C99.7158 5.73598 97.9412 5.71755 97.2018 5.79129ZM100.021 9.73655C101.971 10.05 103.099 10.6399 104.309 11.9581C105.64 13.4053 106.509 15.1751 106.86 17.1109C107.295 19.5536 107.027 24.0243 106.352 25.7296C105.502 27.8773 103.246 29.555 100.187 30.3109C98.8377 30.6427 97.1555 30.6611 96.0649 30.357C93.8836 29.7394 92.4603 28.412 91.1478 25.7757C90.0664 23.6002 89.7522 22.2268 89.8446 19.9684C89.974 16.438 90.9445 13.8754 92.8947 11.9396C94.8264 10.0315 97.2387 9.28487 100.021 9.73655Z" fill="#FF4794"/>
<path d="M97.2757 15.1198C96.5733 15.3502 96.2221 15.5807 95.6213 16.2075C94.7063 17.1662 94.2349 18.5304 94.2349 20.2449C94.2257 21.3326 94.3735 21.941 94.8819 22.9458C95.381 23.9321 96.0187 24.6142 96.7582 24.9553C97.2665 25.1857 97.4514 25.2134 98.2185 25.2226C98.9394 25.2226 99.2259 25.1765 99.8452 24.9645C101.167 24.5128 102.091 23.674 102.415 22.6508C102.627 21.9687 102.757 20.0606 102.646 19.1204C102.405 17.0095 101.241 15.4516 99.6141 15.0737C98.8932 14.8986 97.9042 14.9262 97.2757 15.1198Z" fill="#FF4794"/>
<path d="M5.27408 7.74549C4.68255 8.10498 4.52542 8.94381 4.90437 9.73655C5.34802 10.686 7.7049 13.9952 8.38886 14.6405C8.73084 14.9631 9.27616 15.2212 9.59965 15.2212C9.71981 15.2212 9.98784 15.1382 10.2097 15.0368C10.718 14.8064 11.023 14.2072 10.9306 13.6173C10.755 12.5572 7.6402 8.19716 6.69745 7.6994C6.33699 7.51504 5.61606 7.53347 5.27408 7.74549Z" fill="#FF4794"/>
<path d="M26.9112 7.74547C26.2735 8.14184 25.1736 9.52452 23.7318 11.7184C22.6134 13.4145 22.4748 14.1058 23.1125 14.7879C23.6578 15.3779 24.5266 15.3134 25.2568 14.6497C25.9962 13.9675 28.2792 10.7782 28.769 9.73653C29.148 8.9438 28.9908 8.10497 28.3993 7.74547C28.0204 7.51502 27.281 7.51502 26.9112 7.74547Z" fill="#FF4794"/>
<path d="M126.547 7.76393C124.662 8.0036 122.684 8.8793 121.159 10.1514L120.577 10.6399L120.835 10.9072C121.242 11.3313 122.222 12.0318 123.007 12.4558C125.974 14.0505 129.699 14.0505 132.675 12.4558C133.396 12.0687 134.514 11.2667 134.893 10.8704L135.097 10.6399L134.524 10.1514C132.315 8.28013 129.403 7.41365 126.547 7.76393ZM129.061 9.10974C129.468 9.30332 129.893 9.93935 129.976 10.4924C130.096 11.3128 129.616 11.9857 128.655 12.3268C127.444 12.7508 125.873 12.0226 125.715 10.9533C125.595 10.1514 126.002 9.43237 126.778 9.10052C127.241 8.89773 128.636 8.90695 129.061 9.10974Z" fill="#FF4794"/>
<path d="M15.2654 15.3687C11.4852 15.9033 8.72161 17.1477 6.22609 19.4245L5.7085 19.8947L6.05048 20.2173C8.60145 22.6508 12.2616 24.2363 15.7738 24.4299C20.0993 24.6603 24.046 23.3421 27.1792 20.6136L27.9926 19.8947L27.5952 19.5444C25.229 17.4427 22.8906 16.2352 19.9884 15.6268C19.0919 15.4424 18.5373 15.3871 17.2064 15.3595C16.2914 15.341 15.4226 15.3502 15.2654 15.3687ZM18.371 17.3505C19.3045 17.5902 20.0346 18.6502 20.0993 19.8486C20.164 21.0008 19.7112 21.6737 18.4819 22.2544C16.7905 23.038 14.4706 22.4019 13.7774 20.9455C13.5555 20.503 13.5093 19.7379 13.648 19.1111C13.8421 18.2262 14.8033 17.4611 15.9586 17.2583C16.5132 17.1662 17.8441 17.2122 18.371 17.3505Z" fill="#FF4794"/>
<path d="M49.9439 23.0933C49.3061 23.2684 48.8625 23.6556 48.502 24.3653C48.0954 25.1857 48.0029 26.2366 48.2894 27.0385C48.7239 28.2737 49.3801 28.8176 50.4337 28.8084C51.2009 28.7991 51.8756 28.5134 52.3655 27.988C52.8091 27.5086 52.8831 27.2044 52.8831 25.9139C52.8831 24.8631 52.7444 24.4206 52.2361 23.757C51.7739 23.1578 50.7757 22.872 49.9439 23.0933Z" fill="#FF4794"/>
<path d="M151.613 23.0933C150.606 23.3698 149.913 24.3745 149.82 25.7204C149.774 26.3472 149.802 26.55 149.977 27.0385C150.44 28.3198 151.04 28.8176 152.103 28.8083C152.87 28.7991 153.545 28.5134 154.035 27.988C154.479 27.5086 154.553 27.2044 154.553 25.9139C154.543 24.8631 154.414 24.4206 153.906 23.7569C153.443 23.1578 152.445 22.872 151.613 23.0933Z" fill="#FF4794"/>
<path d="M8.72157 24.9092C8.20398 25.2503 7.30745 26.3656 6.05044 28.2184C4.95056 29.8408 4.64555 30.486 4.71025 31.0483C4.83041 32.1545 5.9765 32.6061 6.93774 31.9332C7.56624 31.4908 9.96934 28.2553 10.6348 26.9371C11.0785 26.0799 11.0322 25.453 10.5054 24.9461C10.2836 24.7341 10.1265 24.6787 9.7013 24.6419C9.22068 24.6142 9.11901 24.6419 8.72157 24.9092Z" fill="#FF4794"/>
<path d="M23.4822 24.7156C23.1864 24.8354 22.8259 25.3148 22.7612 25.6743C22.7243 25.8586 22.7428 26.1628 22.789 26.3564C23.057 27.3427 25.95 31.4262 26.7726 31.9609C27.5027 32.4402 28.3346 32.3112 28.7875 31.629C29.074 31.205 29.037 30.5598 28.6673 29.8684C27.9002 28.4028 25.5803 25.2963 24.9425 24.8908C24.5081 24.6142 23.9073 24.5405 23.4822 24.7156Z" fill="#FF4794"/>
<path d="M16.1804 27.0109C15.3301 27.398 15.1822 27.9327 15.2007 30.4768C15.2192 32.8458 15.3578 34.6433 15.5611 35.1595C15.8846 35.9891 16.6333 36.4592 17.308 36.238C17.992 36.0075 18.3339 35.4913 18.5003 34.4405C18.5743 33.9704 18.3986 29.7762 18.26 28.8084C18.2138 28.4028 18.0844 27.905 17.9827 27.693C17.65 26.9924 16.8551 26.6975 16.1804 27.0109Z" fill="#FF4794"/>
</svg>
