<svg width="50" height="50" viewBox="0 0 50 50" fill="none" xmlns="http://www.w3.org/2000/svg">
<path d="M41.7285 14.0918L31.2207 3.58398C30.9277 3.29102 30.5322 3.125 30.1172 3.125H9.375C8.51074 3.125 7.8125 3.82324 7.8125 4.6875V45.3125C7.8125 46.1768 8.51074 46.875 9.375 46.875H40.625C41.4893 46.875 42.1875 46.1768 42.1875 45.3125V15.2002C42.1875 14.7852 42.0215 14.3848 41.7285 14.0918ZM38.584 15.918H29.3945V6.72852L38.584 15.918ZM38.6719 43.3594H11.3281V6.64062H26.0742V17.1875C26.0742 17.7314 26.2903 18.253 26.6749 18.6376C27.0595 19.0222 27.5811 19.2383 28.125 19.2383H38.6719V43.3594ZM26.5625 23.0469C26.5625 22.832 26.3867 22.6562 26.1719 22.6562H23.8281C23.6133 22.6562 23.4375 22.832 23.4375 23.0469V28.3203H18.1641C17.9492 28.3203 17.7734 28.4961 17.7734 28.7109V31.0547C17.7734 31.2695 17.9492 31.4453 18.1641 31.4453H23.4375V36.7188C23.4375 36.9336 23.6133 37.1094 23.8281 37.1094H26.1719C26.3867 37.1094 26.5625 36.9336 26.5625 36.7188V31.4453H31.8359C32.0508 31.4453 32.2266 31.2695 32.2266 31.0547V28.7109C32.2266 28.4961 32.0508 28.3203 31.8359 28.3203H26.5625V23.0469Z" fill="white"/>
</svg>
